<svg xmlns="http://www.w3.org/2000/svg" xmlns:xlink="http://www.w3.org/1999/xlink" width="77" height="74" viewBox="0 0 77 74"><defs><clipPath id="clip-path"><rect id="Rectangle_3277" data-name="Rectangle 3277" width="77" height="74" transform="translate(0 0)" fill="#267370"></rect></clipPath></defs><g id="Group_5103" data-name="Group 5103" transform="translate(0 0)"><g id="Group_5103-2" data-name="Group 5103" clip-path="url(#clip-path)"><path id="Path_20093" data-name="Path 20093" d="M132.538,145.06a20.53,20.53,0,1,1,20.53-20.53,20.553,20.553,0,0,1-20.53,20.53m0-40.428a19.9,19.9,0,1,0,19.9,19.9,19.921,19.921,0,0,0-19.9-19.9" transform="translate(-94.319 -87.576)" fill="#267370"></path><path id="Path_20094" data-name="Path 20094" d="M288.325,193.056a.316.316,0,0,1-.316-.316V176.316a.316.316,0,0,1,.316-.316h5.053a.316.316,0,0,1,.316.316V192.74a.316.316,0,0,1-.316.316Zm.316-.632h4.422V176.632h-4.422Z" transform="translate(-242.526 -148.206)" fill="#267370"></path><path id="Path_20095" data-name="Path 20095" d="M224.325,213.265a.316.316,0,0,1-.316-.316V200.316a.316.316,0,0,1,.316-.316h5.053a.316.316,0,0,1,.316.316V212.95a.316.316,0,0,1-.316.316Zm.316-.632h4.422v-12h-4.422Z" transform="translate(-188.633 -168.416)" fill="#267370"></path><path id="Path_20096" data-name="Path 20096" d="M160.325,240.212a.316.316,0,0,1-.316-.316v-7.58a.316.316,0,0,1,.316-.316h5.053a.316.316,0,0,1,.316.316v7.58a.316.316,0,0,1-.316.316Zm.316-.632h4.422v-6.949h-4.422Z" transform="translate(-134.74 -195.362)" fill="#267370"></path><path id="Path_20097" data-name="Path 20097" d="M84.081,101.263a.312.312,0,0,1-.258-.137l-1.634-2.4a3.382,3.382,0,0,0-2.772-1.519c-.058,0-.117,0-.175,0-.181,0-.39.007-.6.007s-.417,0-.625-.008H77.99A3.548,3.548,0,0,0,75.1,98.727l-1.635,2.4a.316.316,0,0,1-.261.139.386.386,0,0,1-.068-.006A30.084,30.084,0,0,1,65.78,98.89.32.32,0,0,1,65.6,98.6l.035-3.083a3.669,3.669,0,0,0-1.511-3.024c-.328-.237-.659-.487-.982-.744A3.426,3.426,0,0,0,61.019,91a3.293,3.293,0,0,0-1.092.186l-3.054,1.073a.322.322,0,0,1-.106.018.314.314,0,0,1-.228-.1A31.3,31.3,0,0,1,52,85.989a.322.322,0,0,1,.02-.338l2.019-2.822a3.755,3.755,0,0,0,.481-3.386c-.139-.409-.268-.82-.384-1.22A3.551,3.551,0,0,0,51.846,75.8L48.46,74.7a.317.317,0,0,1-.216-.262,30.952,30.952,0,0,1,0-7.619.319.319,0,0,1,.217-.263l3.385-1.1a3.55,3.55,0,0,0,2.288-2.424c.1-.357.226-.75.384-1.236a3.739,3.739,0,0,0-.483-3.374L52.014,55.6A.322.322,0,0,1,52,55.26a31.225,31.225,0,0,1,4.538-6.185.318.318,0,0,1,.23-.1.314.314,0,0,1,.1.018l3.054,1.073a3.306,3.306,0,0,0,1.094.186,3.427,3.427,0,0,0,2.122-.75c.31-.247.641-.5.983-.744a3.67,3.67,0,0,0,1.508-3.023l-.035-3.084a.318.318,0,0,1,.182-.289,30.125,30.125,0,0,1,7.369-2.37.332.332,0,0,1,.059-.005.315.315,0,0,1,.26.138l1.633,2.4a3.391,3.391,0,0,0,2.833,1.517h.084c.211-.006.42-.008.628-.008s.417,0,.624.008h.03a3.443,3.443,0,0,0,2.891-1.516l1.634-2.4a.318.318,0,0,1,.264-.137.329.329,0,0,1,.057.005,30.1,30.1,0,0,1,7.366,2.369.319.319,0,0,1,.181.292l-.035,3.083a3.668,3.668,0,0,0,1.511,3.024c.328.236.658.487.982.744a3.425,3.425,0,0,0,2.121.752,3.274,3.274,0,0,0,1.1-.188L100.417,49a.308.308,0,0,1,.1-.019.316.316,0,0,1,.229.1,31.3,31.3,0,0,1,4.54,6.186.324.324,0,0,1-.02.339l-2.019,2.822a3.756,3.756,0,0,0-.48,3.386c.138.407.267.818.384,1.221a3.55,3.55,0,0,0,2.288,2.425l3.386,1.1a.316.316,0,0,1,.216.262,30.961,30.961,0,0,1,0,7.62.322.322,0,0,1-.217.263l-3.385,1.1a3.55,3.55,0,0,0-2.288,2.424c-.115.4-.244.81-.384,1.22a3.752,3.752,0,0,0,.481,3.387l2.019,2.822a.321.321,0,0,1,.018.338,31.215,31.215,0,0,1-4.538,6.185.316.316,0,0,1-.23.1.321.321,0,0,1-.106-.018l-3.052-1.072A3.287,3.287,0,0,0,96.27,91a3.427,3.427,0,0,0-2.121.751c-.311.248-.642.5-.983.744a3.67,3.67,0,0,0-1.508,3.023l.035,3.084a.318.318,0,0,1-.182.29,30.136,30.136,0,0,1-7.369,2.37.333.333,0,0,1-.061.006m-4.719-4.683a4.065,4.065,0,0,1,3.352,1.792l1.52,2.233.623-.133a29.559,29.559,0,0,0,5.626-1.811l.576-.251-.034-2.888A4.3,4.3,0,0,1,92.8,91.977c.321-.231.643-.475.957-.724a4,4,0,0,1,2.509-.891,3.945,3.945,0,0,1,1.31.224l2.865,1.006.423-.473a30.684,30.684,0,0,0,3.467-4.728l.316-.532L102.739,83.2a4.388,4.388,0,0,1-.564-3.957c.142-.418.265-.808.375-1.194a4.181,4.181,0,0,1,2.7-2.848l3.2-1.039.059-.619c.095-1,.143-1.975.143-2.913s-.048-1.913-.142-2.911l-.058-.62-3.2-1.039a4.183,4.183,0,0,1-2.7-2.849c-.116-.4-.242-.8-.374-1.192a4.384,4.384,0,0,1,.563-3.958l1.907-2.664-.317-.532a30.722,30.722,0,0,0-3.467-4.727l-.423-.473-2.865,1.006a3.934,3.934,0,0,1-1.309.224A4.055,4.055,0,0,1,93.756,50c-.313-.249-.635-.493-.957-.725a4.307,4.307,0,0,1-1.773-3.544l.034-2.888-.576-.251a29.539,29.539,0,0,0-5.628-1.811l-.622-.133L82.711,42.88a4.035,4.035,0,0,1-3.323,1.794l-.127,0c-.211,0-.414-.007-.618-.007s-.408,0-.612.007h-.084a4.084,4.084,0,0,1-3.374-1.792l-1.521-2.233-.623.133A29.542,29.542,0,0,0,66.8,42.591l-.575.251.034,2.888a4.3,4.3,0,0,1-1.772,3.543c-.322.232-.644.476-.957.724a4.057,4.057,0,0,1-2.511.89,3.942,3.942,0,0,1-1.308-.224L56.85,49.659l-.422.473a30.672,30.672,0,0,0-3.467,4.727l-.317.532,1.907,2.665a4.382,4.382,0,0,1,.564,3.957c-.141.416-.264.807-.375,1.194a4.182,4.182,0,0,1-2.7,2.848l-3.2,1.038-.059.619c-.1,1-.143,1.975-.143,2.912s.048,1.913.142,2.911l.058.62,3.2,1.039a4.184,4.184,0,0,1,2.7,2.849c.117.4.242.8.374,1.192A4.385,4.385,0,0,1,54.55,83.2L52.643,85.86l.317.532a30.651,30.651,0,0,0,3.467,4.728l.422.473,2.865-1.006a3.926,3.926,0,0,1,1.309-.225,4.058,4.058,0,0,1,2.511.891c.315.25.637.494.957.725a4.308,4.308,0,0,1,1.773,3.544l-.034,2.888.576.251a29.544,29.544,0,0,0,5.627,1.811l.623.133,1.522-2.233a4.017,4.017,0,0,1,3.362-1.792h.1c.2,0,.4.007.608.007s.408,0,.612-.007h.106Z" transform="translate(-40.426 -33.672)" fill="#267370"></path><path id="Path_20098" data-name="Path 20098" d="M95.443,30.953a.316.316,0,0,1-.2-.069L88.929,25.83a.316.316,0,0,1,.1-.547l3.724-1.241-.388-.939a36.315,36.315,0,0,0-67.323.44l-.593-.218A37.173,37.173,0,0,1,58.8,0,37.087,37.087,0,0,1,93.01,23.022l.335.822,3.261-1.086a.306.306,0,0,1,.1-.017.316.316,0,0,1,.2.076.321.321,0,0,1,.106.291l-1.263,7.581a.319.319,0,0,1-.2.244.3.3,0,0,1-.112.02M89.776,25.7l5.444,4.355,1.089-6.531Z" transform="translate(-20.586)" fill="#267370"></path><path id="Path_20099" data-name="Path 20099" d="M38.219,296.206A37.089,37.089,0,0,1,3.7,272.414l-.276-.724L.37,272.2a.252.252,0,0,1-.053,0,.319.319,0,0,1-.242-.113.308.308,0,0,1-.058-.3L2.544,264.2a.315.315,0,0,1,.243-.21.329.329,0,0,1,.061-.006.318.318,0,0,1,.242.119l5.054,6.318a.325.325,0,0,1,.048.313.32.32,0,0,1-.242.2l-3.9.651.435,1.092a36.317,36.317,0,0,0,67.5-.013l.593.217a37.173,37.173,0,0,1-34.358,23.326M.783,271.489,7.314,270.4,2.96,264.956Z" transform="translate(0 -222.299)" fill="#267370"></path></g></g></svg>