<svg xmlns="http://www.w3.org/2000/svg" width="195.518" height="46.388" viewBox="0 0 195.518 46.388"><defs><style>.a{isolation:isolate;}.b{fill:#00818a;}.c{fill:#fff;}</style></defs><g transform="translate(-62.439 -54.542)"><g transform="translate(248.156 89.105)"><g class="a"><path class="b" d="M414.417,128.151a4.907,4.907,0,1,1,6.939,0A4.921,4.921,0,0,1,414.417,128.151Z" transform="translate(-412.986 -119.781)"/></g></g><path class="b" d="M103.427,79.558l-3-4.313a.1.1,0,0,0-.141-.016.1.1,0,0,0-.033.048l-.906,2.983-.122.064L91.226,75.9a9.314,9.314,0,0,1,1.4-.9,8.4,8.4,0,0,0,3.412-3.4h0c.069-.122.117-.249.18-.376s.122-.249.175-.376a11.183,11.183,0,0,0,.53-8.1,11.544,11.544,0,0,0-22.6,3.364,11.354,11.354,0,0,0,1.06,4.726c.058.132.122.26.185.392s.106.249.175.366h0A8.4,8.4,0,0,0,79.157,75a9.313,9.313,0,0,1,1.4.9l-7.979,2.426-.127-.064-.9-2.983a.1.1,0,0,0-.127-.065.1.1,0,0,0-.048.033l-3,4.313a.208.208,0,0,0,0,.185,3.137,3.137,0,0,0,3.11,2.209,5.421,5.421,0,0,0,1.526-.244l6.267-1.9,4.556-1.383a.742.742,0,0,0,.434-.344,3.338,3.338,0,0,0,.323-.964.5.5,0,0,0,0-.079,3.337,3.337,0,0,0-.244-1.807,4.037,4.037,0,0,0-.286-.577,1.988,1.988,0,0,0-.429-.44,3.226,3.226,0,0,0-.832-.493,8.556,8.556,0,0,1-.805-.392,8.291,8.291,0,1,1,11.375-3.8,8.481,8.481,0,0,1-2.119,2.808,8.063,8.063,0,0,1-1.224.879c-.217.127-.445.249-.673.355a6.518,6.518,0,0,0-.864.419,2.936,2.936,0,0,0-.721.662,2.693,2.693,0,0,0-.291.567,3.338,3.338,0,0,0-.238,1.817v.09a3.517,3.517,0,0,0,.334.964.742.742,0,0,0,.434.344l4.556,1.383,6.267,1.9a5.421,5.421,0,0,0,1.526.244,3.137,3.137,0,0,0,3.11-2.209A.207.207,0,0,0,103.427,79.558Z" transform="translate(-2.779 0)"/><path class="b" d="M103.44,110.36a4,4,0,0,0-2.559-1.838l-13.69-3.894a.53.53,0,0,0-.53.122l-1.319,1.192a.53.53,0,0,1-.36.138H81.247a.53.53,0,0,1-.36-.138l-1.319-1.192a.53.53,0,0,0-.53-.122l-13.653,3.894a4,4,0,0,0-2.569,1.822,3.18,3.18,0,0,0-.265,2.336.2.2,0,0,0,.117.143l4.837,2.013a.1.1,0,0,0,.127-.117l-.837-3.02a.09.09,0,0,1,.056-.114l.007,0,9.006-2.564a.106.106,0,0,1,.1.185l-6.871,5.965a4.037,4.037,0,0,0-1.558,2.739,3.177,3.177,0,0,0,.747,2.23.2.2,0,0,0,.17.074l5.25-.238a.1.1,0,0,0,.092-.109.106.106,0,0,0-.023-.055l-2.029-2.352a.1.1,0,0,1,0-.143h0l7.089-6.146a.106.106,0,0,1,.17.127l-3.709,8.291a4.005,4.005,0,0,0-.254,3.142,3.178,3.178,0,0,0,1.621,1.706.2.2,0,0,0,.18,0L81.5,122a.1.1,0,0,0,.045-.135.1.1,0,0,0-.045-.045l-2.866-1.261a.1.1,0,0,1-.048-.132l4.429-9.907a.106.106,0,0,1,.2,0l4.429,9.907a.1.1,0,0,1-.048.132l-2.845,1.271a.1.1,0,0,0-.045.135.1.1,0,0,0,.045.045l4.657,2.432a.2.2,0,0,0,.18,0,3.178,3.178,0,0,0,1.621-1.706,4.005,4.005,0,0,0-.254-3.142l-3.709-8.291a.106.106,0,0,1,.17-.127l7.083,6.13a.1.1,0,0,1,0,.143h0l-2.04,2.352a.1.1,0,0,0,.014.141.1.1,0,0,0,.055.023l5.25.238a.2.2,0,0,0,.17-.074,3.177,3.177,0,0,0,.747-2.23,4.037,4.037,0,0,0-1.558-2.739l-6.887-5.944a.106.106,0,0,1,.1-.185L99.35,111.6a.1.1,0,0,1,.064.117l-.853,3a.1.1,0,0,0,.132.117l4.858-2a.206.206,0,0,0,.122-.143A3.18,3.18,0,0,0,103.44,110.36Z" transform="translate(0 -23.538)"/><g class="a" transform="translate(105.897 56.594)"><path class="c" d="M158.057,100.965,144.468,60.487h8.673l9.888,31.11,9.83-31.11h8.732l-13.647,40.478Z" transform="translate(-144.468 -59.389)"/><path class="c" d="M235.283,81.6h7.46V110.51h-7.46V107.1a11.324,11.324,0,0,1-9.425,4.221,13.134,13.134,0,0,1-9.946-4.395,16.37,16.37,0,0,1,0-21.685,13.191,13.191,0,0,1,9.946-4.452,11.324,11.324,0,0,1,9.425,4.221Zm-8.037,22.61a7.755,7.755,0,0,0,5.724-2.255,7.974,7.974,0,0,0,2.313-5.9,7.755,7.755,0,0,0-2.313-5.841,8.241,8.241,0,0,0-11.449,0,7.933,7.933,0,0,0-2.255,5.841,8.161,8.161,0,0,0,2.255,5.9A7.755,7.755,0,0,0,227.245,104.207Z" transform="translate(-176.131 -68.934)"/><path class="c" d="M306.846,83.969c2.082,2.139,3.123,5.03,3.123,8.789V110.51h-7.46V93.683c0-3.874-2.255-5.956-5.724-5.956-3.874,0-6.361,2.371-6.361,7.17V110.51h-7.459V81.6h7.459v3.239c1.793-2.718,4.684-4.048,8.616-4.048A10.244,10.244,0,0,1,306.846,83.969Z" transform="translate(-209.59 -68.934)"/><path class="c" d="M360.268,82.3h-6.534V94.329c0,3.123,2.255,3.18,6.534,2.949v6.766c-10.235,1.156-13.993-1.793-13.993-9.715V82.3h-5.031V75.131h5.031v-5.84l7.459-2.255v8.1h6.534Z" transform="translate(-236.993 -62.468)"/><path class="c" d="M385.446,63.04a4.6,4.6,0,1,1,4.568,4.568A4.615,4.615,0,0,1,385.446,63.04Zm.867,36.95V71.077h7.459V99.99Z" transform="translate(-257.778 -58.414)"/></g></g></svg>