<svg xmlns="http://www.w3.org/2000/svg" xmlns:xlink="http://www.w3.org/1999/xlink" id="Group_5104" data-name="Group 5104" width="87.465" height="87.479" viewBox="0 0 87.465 87.479"><defs><clipPath id="clip-path"><rect id="Rectangle_3278" data-name="Rectangle 3278" width="87.465" height="87.479" fill="#267370"></rect></clipPath></defs><g id="Group_5104-2" data-name="Group 5104" clip-path="url(#clip-path)"><path id="Path_20100" data-name="Path 20100" d="M82.544,87.479a4.946,4.946,0,0,1-3.479-1.451L65.891,72.854l-6.05-6.06-.689.373A19.826,19.826,0,0,1,29.932,51.129l-.069-.976H21.788v7.021a.443.443,0,0,1-.886,0V50.153H14.323v7.021a.443.443,0,0,1-.886,0V50.153h-1.05a4.927,4.927,0,0,1-4.922-4.922v-1.05H.444a.444.444,0,0,1,0-.887H7.465V36.717H.444a.443.443,0,1,1,0-.886H7.465V29.252H.444a.443.443,0,1,1,0-.886H7.465V21.788H.444a.444.444,0,1,1,0-.887H7.465V14.323H.444a.443.443,0,1,1,0-.886H7.465v-1.05a4.927,4.927,0,0,1,4.922-4.922h1.05V.444a.443.443,0,1,1,.886,0V7.465H20.9V.444a.443.443,0,1,1,.886,0V7.465h6.578V.444a.443.443,0,1,1,.886,0V7.465H35.83V.444a.443.443,0,1,1,.886,0V7.465H43.3V.444a.443.443,0,1,1,.886,0V7.465h1.05a4.927,4.927,0,0,1,4.922,4.922v1.05h7.021a.443.443,0,1,1,0,.886H50.153V20.9h7.021a.444.444,0,1,1,0,.887H50.153v8.076l.976.068A19.826,19.826,0,0,1,67.175,59.157l-.373.689L72.854,65.9l4.222,4.223,8.951,8.959a4.927,4.927,0,0,1,0,6.957,4.877,4.877,0,0,1-3.479,1.444ZM71.059,76.761l8.658,8.659a4.092,4.092,0,0,0,5.663.012l.015-.015a4.036,4.036,0,0,0,.012-5.714l-8.645-8.645Zm-4.226-4.225,3.6,3.6,5.7-5.7-3.6-3.6ZM65.591,61.576a20.016,20.016,0,0,1-4.015,4.014l-.969.726,5.6,5.592,5.711-5.7-5.6-5.6ZM49.71,30.745A18.965,18.965,0,1,0,68.675,49.71,18.986,18.986,0,0,0,49.71,30.745M12.387,8.351a4.04,4.04,0,0,0-4.035,4.036V45.231a4.04,4.04,0,0,0,4.035,4.035H29.863l.069-.976a19.652,19.652,0,0,1,1.259-5.67l.548-1.426H19.852a3.433,3.433,0,0,1-3.429-3.429V19.851a3.433,3.433,0,0,1,3.429-3.429H37.766A3.433,3.433,0,0,1,41.2,19.851V31.739l1.426-.548a19.625,19.625,0,0,1,5.668-1.258l.976-.068V12.387a4.04,4.04,0,0,0-4.035-4.036Zm7.465,8.957a2.546,2.546,0,0,0-2.543,2.542V37.766a2.546,2.546,0,0,0,2.543,2.542H32.24l.3-.522a20.028,20.028,0,0,1,7.243-7.242l.523-.3V19.851a2.546,2.546,0,0,0-2.543-2.542Z" fill="#267370"></path><path id="Path_20101" data-name="Path 20101" d="M128.439,128.882a.443.443,0,1,1,0-.886h1.493a.443.443,0,1,1,0,.886Z" transform="translate(-105.601 -105.602)" fill="#267370"></path><path id="Path_20102" data-name="Path 20102" d="M128.439,197.145a.443.443,0,1,1,0-.886h1.493a.443.443,0,1,1,0,.886Z" transform="translate(-105.601 -161.922)" fill="#267370"></path><path id="Path_20103" data-name="Path 20103" d="M188.172,128.882a.443.443,0,1,1,0-.886h1.493a.443.443,0,1,1,0,.886Z" transform="translate(-154.883 -105.602)" fill="#267370"></path><path id="Path_20104" data-name="Path 20104" d="M222.2,260.305a.443.443,0,0,1-.309-.761l6.95-6.951a1.2,1.2,0,0,1,.841-.349,1.18,1.18,0,0,1,.841.348l3.638,3.639,7.889-7.888h-3.409a.444.444,0,1,1,0-.887h4.478a.433.433,0,0,1,.165.034.443.443,0,0,1,.278.41v4.478a.443.443,0,0,1-.886,0v-3.41L235,256.645a1.2,1.2,0,0,1-.842.349,1.185,1.185,0,0,1-.843-.349l-3.636-3.638-7.165,7.165a.442.442,0,0,1-.317.135" transform="translate(-182.956 -204.162)" fill="#267370"></path></g></svg>