<svg xmlns="http://www.w3.org/2000/svg" xmlns:xlink="http://www.w3.org/1999/xlink" width="97.844" height="75.971" viewBox="0 0 97.844 75.971"><defs><clipPath id="clip-path"><rect id="Rectangle_3279" data-name="Rectangle 3279" width="97.844" height="75.971" fill="#267370"></rect></clipPath></defs><g id="Group_5105" data-name="Group 5105" transform="translate(-51 27)"><g id="Group_5105-2" data-name="Group 5105" transform="translate(51 -27)" clip-path="url(#clip-path)"><path id="Path_20105" data-name="Path 20105" d="M.487,127.6A.488.488,0,0,1,0,127.115v-25a.488.488,0,0,1,.487-.487H3.612a3.616,3.616,0,0,1,3.612,3.612v1.075H34.5l-.92-1.487a5.159,5.159,0,0,1,.544-6.153l.248-.277V91.164l-3.116-.579a3.617,3.617,0,0,1-2.892-4.211l.482-2.593-1.057-.2A3.617,3.617,0,0,1,24.9,79.373l2.283-12.289a3.61,3.61,0,0,1,4.211-2.891L97.446,76.463a.487.487,0,0,1,.28.8l-3.964,4.6-2.993,16.11a3.61,3.61,0,0,1-4.211,2.892L41.6,92.506V98.4l.248.277a5.169,5.169,0,0,1-2.63,8.466l-.743.182v2.6a6.745,6.745,0,0,1-6.737,6.737H7.224v7.325A3.616,3.616,0,0,1,3.612,127.6Zm.487-.975H3.612A2.64,2.64,0,0,0,6.25,123.99V105.241A2.64,2.64,0,0,0,3.612,102.6H.975Zm6.25-10.937H31.736a5.769,5.769,0,0,0,5.762-5.762v-2.638H7.224ZM37.985,97.916a4.2,4.2,0,1,0,4.2,4.2,4.2,4.2,0,0,0-4.2-4.2M29.323,86.552a2.638,2.638,0,0,0,2.111,3.075L86.735,99.9a2.637,2.637,0,0,0,3.075-2.111L92.5,83.321l-7.191,8.336a5.185,5.185,0,0,1-4.864,1.708l-40.364-7.5a.487.487,0,1,1,.178-.958l40.364,7.5a4.206,4.206,0,0,0,3.947-1.386L96.434,77.266,31.214,65.15a2.659,2.659,0,0,0-.486-.045,2.64,2.64,0,0,0-2.589,2.156L25.856,79.551a2.638,2.638,0,0,0,2.111,3.075l6.145,1.142a.487.487,0,0,1-.087.967.5.5,0,0,1-.091-.008l-4.13-.767Zm6.024,10.933,1.239-.349a5.143,5.143,0,0,1,2.8,0l1.238.348V92.324l-5.275-.98Z" transform="translate(0 -51.631)" fill="#267370"></path><path id="Path_20106" data-name="Path 20106" d="M104.7,42.413a.488.488,0,0,1-.487-.487,9.873,9.873,0,0,1,9.862-9.862.487.487,0,1,1,0,.975,8.9,8.9,0,0,0-8.887,8.887.488.488,0,0,1-.487.487" transform="translate(-83.899 -25.814)" fill="#267370"></path><path id="Path_20107" data-name="Path 20107" d="M72.632,16.6a.488.488,0,0,1-.487-.487A16.13,16.13,0,0,1,88.257,0a.487.487,0,1,1,0,.975A15.154,15.154,0,0,0,73.12,16.112a.488.488,0,0,1-.487.487" transform="translate(-58.083)" fill="#267370"></path></g></g></svg>